<svg width="33" height="34" fill="none" xmlns="http://www.w3.org/2000/svg"><path d="M4.857 24.423a1.5 1.5 0 0 0-2.496 1.665l2.496-1.665Zm23.76-10.88c1.954 7.041-2.172 14.333-9.214 16.286l.802 2.89c8.639-2.395 13.7-11.34 11.304-19.978l-2.891.801ZM12.332 4.327c7.042-1.953 14.334 2.172 16.287 9.214l2.89-.801C29.114 4.102 20.169-.96 11.53 1.437l.802 2.89Zm7.072 25.5c-5.648 1.567-11.46-.777-14.546-5.405L2.36 26.088c3.783 5.674 10.91 8.555 17.844 6.632l-.802-2.891ZM5.61 8.72a13.164 13.164 0 0 1 6.722-4.391l-.801-2.891a16.164 16.164 0 0 0-8.249 5.39L5.61 8.719Z" fill="#000"/><path d="M1.007 2.353 12.604 9.05 1.007 15.745V2.353Z" fill="#000"/></svg>