<svg width="66" height="69" fill="none" xmlns="http://www.w3.org/2000/svg"><mask id="b" fill="#fff"><path d="M51.355 9.787a.977.977 0 0 1 1.384-.233 33 33 0 1 1-40.388.705.977.977 0 0 1 1.39.185l17.664 23.44c.333.44.201 1.074.028 1.599a1.65 1.65 0 1 0 3.115-.054c-.192-.519-.345-1.147-.028-1.6L51.354 9.787Z"/></mask><g filter="url(#a)"><path d="M51.355 9.787a.977.977 0 0 1 1.384-.233 33 33 0 1 1-40.388.705.977.977 0 0 1 1.39.185l17.664 23.44c.333.44.201 1.074.028 1.599a1.65 1.65 0 1 0 3.115-.054c-.192-.519-.345-1.147-.028-1.6L51.354 9.787Z" fill="#444"/></g><path d="M51.355 9.787a.977.977 0 0 1 1.384-.233 33 33 0 1 1-40.388.705.977.977 0 0 1 1.39.185l17.664 23.44c.333.44.201 1.074.028 1.599a1.65 1.65 0 1 0 3.115-.054c-.192-.519-.345-1.147-.028-1.6L51.354 9.787Z" stroke="#626262" stroke-width="12" mask="url(#b)"/><circle cx="32.5" cy="9.5" r="6.5" fill="#444" stroke="#626262" stroke-width="5"/><defs><filter id="a" x="-3" y="6.363" width="69" height="62.637" filterUnits="userSpaceOnUse" color-interpolation-filters="sRGB"><feFlood flood-opacity="0" result="BackgroundImageFix"/><feBlend in="SourceGraphic" in2="BackgroundImageFix" result="shape"/><feColorMatrix in="SourceAlpha" values="0 0 0 0 0 0 0 0 0 0 0 0 0 0 0 0 0 0 127 0" result="hardAlpha"/><feMorphology radius="3" in="SourceAlpha" result="effect1_innerShadow_13_964"/><feOffset dx="-8" dy="-9"/><feComposite in2="hardAlpha" operator="arithmetic" k2="-1" k3="1"/><feColorMatrix values="0 0 0 0 0 0 0 0 0 0 0 0 0 0 0 0 0 0 0.25 0"/><feBlend in2="shape" result="effect1_innerShadow_13_964"/></filter></defs></svg>